<svg id="svg" version="1.1"
    xmlns="http://www.w3.org/2000/svg"
    xmlns:xlink="http://www.w3.org/1999/xlink" width="400" height="476.2376237623762" viewBox="0, 0, 400,476.2376237623762">
    <g id="svgg">
        <path id="path0" d="M191.800 59.467 C 173.216 62.505,159.981 77.040,157.215 97.447 C 156.385 103.569,158.706 114.218,162.227 120.448 C 162.982 121.784,163.600 122.957,163.600 123.056 C 163.600 124.875,172.034 133.173,176.862 136.103 C 206.825 154.292,245.144 128.114,238.748 93.824 C 236.179 80.052,226.429 67.207,215.200 62.801 C 213.990 62.326,212.460 61.707,211.800 61.425 C 207.671 59.660,197.004 58.616,191.800 59.467 M100.980 120.958 C 95.551 121.995,86.995 125.256,86.467 126.489 C 86.393 126.660,86.149 126.800,85.923 126.800 C 83.277 126.800,72.032 139.762,70.584 144.482 C 70.429 144.987,70.169 145.580,70.007 145.800 C 69.844 146.020,69.330 147.476,68.864 149.036 C 64.993 161.987,66.500 173.159,73.740 185.200 C 76.568 189.904,83.449 196.111,88.807 198.792 C 90.233 199.506,91.715 200.368,92.100 200.707 C 93.010 201.509,93.204 266.150,92.300 267.263 C 91.836 267.835,86.202 271.200,85.709 271.200 C 85.588 271.200,84.209 272.230,82.644 273.488 C 60.982 290.918,61.650 323.803,84.000 340.178 C 86.298 341.862,88.856 343.232,93.600 345.321 C 100.725 348.458,114.518 348.598,121.400 345.602 C 130.352 341.706,134.655 338.607,140.053 332.168 C 147.407 323.395,150.772 307.328,147.587 296.200 C 146.572 292.650,145.193 288.811,144.478 287.543 C 139.495 278.701,134.598 273.673,127.000 269.596 C 125.240 268.652,123.575 267.602,123.300 267.263 C 122.396 266.149,122.590 201.509,123.500 200.707 C 123.885 200.368,125.370 199.505,126.800 198.790 C 131.359 196.511,135.485 193.069,140.090 187.700 C 147.861 178.641,150.876 162.430,147.063 150.200 C 145.299 144.541,144.612 143.056,141.450 138.072 C 133.665 125.798,115.607 118.162,100.980 120.958 M282.400 120.671 C 242.611 127.107,233.060 180.315,268.400 198.666 C 269.610 199.295,271.050 200.125,271.600 200.512 L 272.600 201.215 272.698 233.508 C 272.807 269.345,272.979 267.099,270.000 268.709 C 260.985 273.581,255.217 279.233,251.207 287.123 C 240.225 308.736,249.376 334.645,271.484 344.531 C 273.291 345.339,274.950 346.000,275.171 346.000 C 275.391 346.000,276.346 346.263,277.291 346.584 C 290.573 351.093,309.132 344.972,319.207 332.760 C 320.187 331.572,321.081 330.510,321.195 330.400 C 321.308 330.290,321.906 329.300,322.524 328.200 C 334.534 306.835,327.613 280.709,307.045 269.767 C 305.193 268.782,303.480 267.737,303.237 267.444 C 302.921 267.064,302.824 257.494,302.898 233.794 L 303.000 200.675 306.200 199.038 C 307.960 198.137,309.490 197.298,309.600 197.173 C 309.710 197.049,310.874 196.149,312.186 195.173 C 314.816 193.218,316.785 191.300,319.317 188.228 C 320.237 187.113,321.081 186.110,321.195 186.000 C 321.422 185.779,321.564 185.526,323.898 181.193 C 339.394 152.423,314.106 115.542,282.400 120.671 " stroke="none" fill="#1d5d6d" fill-rule="evenodd"></path>
        <path id="path1" d="M193.600 193.185 C 162.596 196.986,146.928 231.875,164.223 258.600 C 167.258 263.289,177.836 272.400,180.246 272.400 C 180.504 272.400,181.274 272.922,181.958 273.560 L 183.200 274.721 183.200 306.987 C 183.200 342.547,183.388 340.262,180.342 341.792 C 172.132 345.915,164.148 353.999,160.975 361.400 C 160.598 362.280,160.135 363.360,159.948 363.800 C 148.643 390.292,169.126 421.242,197.931 421.193 C 241.651 421.117,255.291 361.490,216.085 341.832 C 213.041 340.305,213.199 342.222,213.206 307.074 C 213.213 271.231,212.912 274.160,216.800 272.086 C 238.165 260.691,245.743 234.458,233.679 213.654 C 225.523 199.590,209.231 191.269,193.600 193.185 " stroke="none" fill="#3cd3e4" fill-rule="evenodd"></path>
        <path id="path2" d="M0.000 238.000 L 0.000 476.000 200.000 476.000 L 400.000 476.000 400.000 238.000 L 400.000 0.000 200.000 0.000 L 0.000 0.000 0.000 238.000 M204.769 58.227 C 217.383 60.534,230.378 69.512,234.610 78.846 C 234.947 79.591,235.605 80.830,236.071 81.600 C 237.228 83.513,238.800 87.559,238.800 88.627 C 238.800 89.108,239.106 90.199,239.481 91.051 C 240.484 93.334,240.484 107.866,239.481 110.149 C 239.106 111.001,238.800 112.081,238.800 112.549 C 238.798 119.763,227.359 133.661,217.087 138.928 C 196.432 149.519,170.723 140.853,160.506 119.855 C 150.744 99.794,157.018 76.782,175.599 64.490 C 179.010 62.234,183.587 60.031,184.905 60.011 C 185.293 60.005,185.923 59.810,186.305 59.578 C 189.039 57.918,199.064 57.184,204.769 58.227 M118.601 120.425 C 120.345 120.882,122.228 121.492,122.786 121.782 C 123.343 122.071,124.880 122.797,126.200 123.396 C 133.254 126.596,144.800 137.751,144.800 141.368 C 144.800 141.690,144.975 142.061,145.189 142.193 C 146.008 142.699,148.783 150.034,148.795 151.725 C 148.798 152.124,149.083 153.314,149.428 154.371 C 150.181 156.673,150.040 167.835,149.220 170.800 C 148.946 171.790,148.441 173.680,148.098 175.000 C 146.582 180.824,142.027 188.016,136.466 193.363 C 135.072 194.703,133.362 196.153,132.666 196.585 C 131.970 197.016,131.310 197.476,131.200 197.606 C 130.841 198.030,127.842 199.783,126.213 200.520 C 125.338 200.916,124.485 201.456,124.317 201.720 C 124.149 201.984,124.009 216.633,124.006 234.273 L 124.000 266.346 125.100 267.086 C 125.705 267.493,126.920 268.153,127.800 268.552 C 136.040 272.290,145.508 283.886,148.088 293.400 C 149.858 299.929,150.000 300.879,150.000 306.228 C 150.000 311.517,149.761 313.187,148.143 319.200 C 147.261 322.481,143.702 329.343,141.150 332.686 C 138.128 336.644,131.185 342.800,129.742 342.800 C 129.444 342.800,129.200 342.951,129.200 343.135 C 129.200 343.630,122.558 346.800,121.520 346.800 C 121.212 346.800,120.789 346.964,120.580 347.165 C 118.010 349.630,97.590 349.630,95.020 347.165 C 94.811 346.964,94.396 346.800,94.098 346.800 C 93.800 346.800,92.711 346.431,91.678 345.979 C 78.903 340.397,70.018 329.791,66.563 316.000 C 65.520 311.836,65.511 300.152,66.548 296.600 C 67.999 291.632,68.937 288.980,69.460 288.369 C 69.757 288.021,70.000 287.546,70.000 287.313 C 70.000 283.626,80.536 272.514,87.659 268.690 C 89.277 267.822,90.732 266.906,90.894 266.656 C 91.056 266.405,91.191 251.606,91.194 233.768 L 91.200 201.337 89.175 200.388 C 78.377 195.331,70.032 184.713,66.550 171.600 C 65.550 167.836,65.547 155.599,66.545 152.200 C 68.022 147.166,68.939 144.578,69.460 143.969 C 69.757 143.621,70.000 143.136,70.000 142.890 C 70.000 142.286,72.511 138.044,73.605 136.800 C 74.089 136.250,74.989 135.072,75.605 134.182 C 76.592 132.757,78.847 130.530,81.586 128.275 C 83.853 126.410,86.437 124.780,89.000 123.599 C 90.540 122.889,92.250 122.081,92.800 121.803 C 97.927 119.207,111.235 118.496,118.601 120.425 M298.200 120.364 C 316.606 125.286,330.000 142.841,330.000 162.044 C 330.000 170.204,326.581 180.662,321.782 187.181 C 317.910 192.441,311.805 197.700,306.797 200.087 L 304.045 201.400 304.023 233.774 L 304.000 266.148 304.870 267.074 C 305.348 267.583,305.970 268.000,306.252 268.000 C 307.737 268.000,314.645 273.074,318.038 276.658 C 334.398 293.935,333.801 320.507,316.675 337.332 C 300.562 353.163,274.667 353.169,258.550 337.346 C 252.757 331.659,248.405 324.630,247.423 319.377 C 247.261 318.510,246.978 317.618,246.794 317.395 C 244.873 315.068,244.865 299.301,246.782 295.000 C 246.978 294.560,247.453 293.120,247.836 291.800 C 250.383 283.031,258.945 272.972,267.600 268.582 C 268.810 267.968,270.115 267.198,270.500 266.871 C 271.156 266.313,271.200 264.239,271.199 233.838 L 271.197 201.400 269.466 200.688 C 264.575 198.677,252.400 188.103,252.400 185.866 C 252.400 185.727,251.715 184.486,250.877 183.107 C 249.180 180.313,247.738 176.921,247.346 174.800 C 247.204 174.030,246.946 173.218,246.774 172.995 C 244.903 170.581,244.909 153.926,246.782 150.489 C 246.989 150.110,247.536 148.540,247.998 147.000 C 248.461 145.460,249.275 143.480,249.808 142.600 C 250.342 141.720,251.026 140.460,251.328 139.800 C 254.687 132.476,266.800 123.130,276.315 120.522 C 281.697 119.047,292.969 118.966,298.200 120.364 M210.025 194.002 C 232.950 201.047,245.277 225.035,237.934 248.315 C 234.882 257.994,226.073 268.578,218.000 272.267 C 217.670 272.418,216.724 272.963,215.898 273.477 L 214.395 274.413 214.498 307.293 L 214.600 340.173 217.800 341.927 C 225.271 346.021,231.634 352.515,235.314 359.800 C 237.819 364.759,238.232 366.011,239.671 373.000 C 240.180 375.472,239.859 386.397,239.213 388.600 C 238.955 389.480,238.472 391.190,238.141 392.400 C 232.704 412.256,209.623 425.952,189.655 421.173 C 151.307 411.995,143.908 362.528,177.852 342.264 C 179.201 341.459,180.496 340.800,180.730 340.800 C 182.390 340.800,182.400 340.609,182.400 307.155 C 182.400 270.881,182.812 274.649,178.600 272.385 C 176.387 271.196,173.847 269.521,171.533 267.725 C 160.020 258.786,153.881 241.024,157.112 226.000 C 162.324 201.761,186.904 186.897,210.025 194.002 " stroke="none" fill="#fbfbfb" fill-rule="evenodd"></path>
        <path id="path3" d="M190.600 58.417 C 188.620 58.823,186.687 59.346,186.305 59.578 C 185.923 59.810,185.293 60.005,184.905 60.011 C 183.587 60.031,179.010 62.234,175.599 64.490 C 147.165 83.300,150.095 124.786,180.918 139.784 C 193.391 145.852,212.304 143.918,222.901 135.489 C 230.849 129.167,238.799 117.697,238.800 112.549 C 238.800 112.081,239.106 111.001,239.481 110.149 C 240.484 107.866,240.484 93.334,239.481 91.051 C 239.106 90.199,238.800 89.108,238.800 88.627 C 238.800 87.559,237.228 83.513,236.071 81.600 C 235.605 80.830,234.947 79.591,234.610 78.846 C 228.271 64.866,207.083 55.030,190.600 58.417 M205.289 59.037 C 238.654 64.794,251.607 106.639,227.447 130.621 C 221.548 136.476,216.833 139.175,207.800 141.867 C 204.043 142.987,192.548 142.888,188.173 141.698 C 157.985 133.486,146.588 97.646,166.440 73.352 C 175.675 62.050,190.689 56.517,205.289 59.037 M101.400 119.580 C 98.446 119.928,94.477 120.954,92.800 121.803 C 92.250 122.081,90.540 122.889,89.000 123.599 C 86.437 124.780,83.853 126.410,81.586 128.275 C 78.847 130.530,76.592 132.757,75.605 134.182 C 74.989 135.072,74.089 136.250,73.605 136.800 C 72.511 138.044,70.000 142.286,70.000 142.890 C 70.000 143.136,69.757 143.621,69.460 143.969 C 68.939 144.578,68.022 147.166,66.545 152.200 C 65.547 155.599,65.550 167.836,66.550 171.600 C 70.032 184.713,78.377 195.331,89.175 200.388 L 91.200 201.337 91.194 233.768 C 91.191 251.606,91.056 266.405,90.894 266.656 C 90.732 266.906,89.277 267.822,87.659 268.690 C 80.536 272.514,70.000 283.626,70.000 287.313 C 70.000 287.546,69.757 288.021,69.460 288.369 C 68.937 288.980,67.999 291.632,66.548 296.600 C 65.511 300.152,65.520 311.836,66.563 316.000 C 70.018 329.791,78.903 340.397,91.678 345.979 C 92.711 346.431,93.800 346.800,94.098 346.800 C 94.396 346.800,94.811 346.964,95.020 347.165 C 97.590 349.630,118.010 349.630,120.580 347.165 C 120.789 346.964,121.212 346.800,121.520 346.800 C 122.558 346.800,129.200 343.630,129.200 343.135 C 129.200 342.951,129.444 342.800,129.742 342.800 C 131.185 342.800,138.128 336.644,141.150 332.686 C 146.950 325.089,150.000 315.972,150.000 306.228 C 150.000 300.879,149.858 299.929,148.088 293.400 C 145.508 283.886,136.040 272.290,127.800 268.552 C 126.920 268.153,125.705 267.493,125.100 267.086 L 124.000 266.346 124.006 234.273 C 124.009 216.633,124.149 201.984,124.317 201.720 C 124.485 201.456,125.338 200.916,126.213 200.520 C 127.842 199.783,130.841 198.030,131.200 197.606 C 131.310 197.476,131.970 197.016,132.666 196.585 C 133.960 195.782,138.361 191.697,139.800 189.962 C 142.350 186.887,143.410 185.276,145.335 181.545 C 146.511 179.265,147.754 176.320,148.098 175.000 C 148.441 173.680,148.946 171.790,149.220 170.800 C 150.040 167.835,150.181 156.673,149.428 154.371 C 149.083 153.314,148.798 152.124,148.795 151.725 C 148.783 150.034,146.008 142.699,145.189 142.193 C 144.975 142.061,144.800 141.690,144.800 141.368 C 144.800 137.751,133.254 126.596,126.200 123.396 C 124.880 122.797,123.343 122.071,122.786 121.782 C 119.118 119.881,108.305 118.768,101.400 119.580 M281.400 119.578 C 270.094 120.862,255.519 130.663,251.328 139.800 C 251.026 140.460,250.342 141.720,249.808 142.600 C 249.275 143.480,248.461 145.460,247.998 147.000 C 247.536 148.540,246.989 150.110,246.782 150.489 C 244.909 153.926,244.903 170.581,246.774 172.995 C 246.946 173.218,247.204 174.030,247.346 174.800 C 247.738 176.921,249.180 180.313,250.877 183.107 C 251.715 184.486,252.400 185.727,252.400 185.866 C 252.400 188.103,264.575 198.677,269.466 200.688 L 271.197 201.400 271.199 233.838 C 271.200 264.239,271.156 266.313,270.500 266.871 C 270.115 267.198,268.810 267.968,267.600 268.582 C 258.945 272.972,250.383 283.031,247.836 291.800 C 247.453 293.120,246.978 294.560,246.782 295.000 C 244.865 299.301,244.873 315.068,246.794 317.395 C 246.978 317.618,247.261 318.510,247.423 319.377 C 249.465 330.300,261.698 342.754,274.758 347.205 C 309.548 359.063,342.070 320.663,325.493 287.301 C 321.512 279.290,310.257 268.000,306.252 268.000 C 305.970 268.000,305.348 267.583,304.870 267.074 L 304.000 266.148 304.023 233.774 L 304.045 201.400 306.797 200.087 C 322.459 192.619,332.578 172.506,329.355 155.253 C 326.359 139.220,317.742 128.451,302.600 121.814 C 297.932 119.769,288.491 118.773,281.400 119.578 M117.744 120.854 C 127.141 123.417,133.457 127.434,139.643 134.782 C 157.437 155.918,150.502 187.626,125.300 200.357 L 123.600 201.216 123.600 233.946 C 123.600 270.596,123.300 267.063,126.534 268.526 C 151.854 279.980,157.234 316.734,136.534 336.845 C 102.700 369.717,49.354 328.720,71.032 286.506 C 74.859 279.055,86.311 268.000,90.204 268.000 C 92.050 268.000,92.000 268.938,92.000 234.024 L 92.000 201.371 88.231 199.238 C 77.280 193.041,70.144 183.661,67.207 171.600 C 65.535 164.737,66.133 153.286,68.451 147.755 C 74.590 133.112,83.731 124.767,98.000 120.778 C 102.745 119.452,112.743 119.490,117.744 120.854 M297.294 120.843 C 319.025 126.791,332.071 146.554,328.767 168.523 C 326.814 181.517,318.222 193.625,306.886 199.358 C 302.788 201.431,303.200 197.537,303.200 234.171 C 303.200 270.414,302.850 266.803,306.544 268.671 C 333.178 282.141,337.099 320.266,313.795 339.174 C 293.375 355.742,263.463 349.667,250.899 326.400 C 249.346 323.523,248.536 321.437,246.939 316.200 C 245.868 312.689,245.872 300.143,246.945 296.400 C 250.679 283.378,257.811 274.356,269.057 268.430 C 272.254 266.744,272.000 269.698,272.000 234.200 C 272.000 199.764,272.109 201.472,269.846 200.330 C 259.968 195.345,251.702 186.164,248.479 176.600 C 246.242 169.959,246.207 169.736,246.203 162.000 C 246.191 134.455,271.762 113.855,297.294 120.843 M191.400 192.767 C 168.136 196.387,152.117 220.139,157.119 243.600 C 159.094 252.868,164.889 262.566,171.533 267.725 C 173.847 269.521,176.387 271.196,178.600 272.385 C 182.812 274.649,182.400 270.881,182.400 307.155 C 182.400 340.609,182.390 340.800,180.730 340.800 C 179.358 340.800,170.793 346.875,168.173 349.705 C 138.062 382.243,169.173 433.012,211.200 419.918 C 223.449 416.101,234.835 404.471,238.141 392.400 C 238.472 391.190,238.955 389.480,239.213 388.600 C 239.859 386.397,240.180 375.472,239.671 373.000 C 238.232 366.011,237.819 364.759,235.314 359.800 C 231.634 352.515,225.271 346.021,217.800 341.927 L 214.600 340.173 214.498 307.293 L 214.395 274.413 215.898 273.477 C 216.724 272.963,217.670 272.418,218.000 272.267 C 226.073 268.578,234.882 257.994,237.934 248.315 C 247.592 217.695,222.638 187.908,191.400 192.767 M206.600 193.870 C 244.611 202.284,251.313 253.678,216.800 272.086 C 212.912 274.160,213.213 271.231,213.206 307.074 C 213.199 342.222,213.041 340.305,216.085 341.832 C 255.291 361.490,241.651 421.117,197.931 421.193 C 169.126 421.242,148.643 390.292,159.948 363.800 C 160.135 363.360,160.598 362.280,160.975 361.400 C 164.148 353.999,172.132 345.915,180.342 341.792 C 183.388 340.262,183.200 342.547,183.200 306.987 L 183.200 274.721 181.958 273.560 C 181.274 272.922,180.504 272.400,180.246 272.400 C 177.836 272.400,167.258 263.289,164.223 258.600 C 143.723 226.922,170.581 185.897,206.600 193.870 " stroke="none" fill="#a2cad2" fill-rule="evenodd"></path>
        <path id="path4" d="M191.200 58.997 C 149.501 66.837,143.991 123.985,183.373 140.174 C 189.486 142.686,202.114 143.562,207.800 141.867 C 222.505 137.485,232.019 129.020,237.099 115.800 C 248.732 85.523,222.538 53.105,191.200 58.997 M208.200 60.192 C 209.520 60.588,211.140 61.143,211.800 61.425 C 212.460 61.707,213.990 62.326,215.200 62.801 C 220.860 65.022,228.165 71.275,232.073 77.245 C 249.894 104.467,232.645 139.763,200.307 142.248 C 191.539 142.922,179.094 138.814,172.412 133.039 C 169.213 130.275,163.600 123.915,163.600 123.056 C 163.600 122.957,162.982 121.784,162.227 120.448 C 158.706 114.218,156.385 103.569,157.215 97.447 C 159.981 77.040,173.216 62.505,191.800 59.467 C 194.737 58.987,205.813 59.477,208.200 60.192 M102.600 119.973 C 87.543 121.594,75.213 131.625,68.451 147.755 C 66.133 153.286,65.535 164.737,67.207 171.600 C 70.144 183.661,77.280 193.041,88.231 199.238 L 92.000 201.371 92.000 234.024 C 92.000 268.938,92.050 268.000,90.204 268.000 C 88.002 268.000,79.006 275.167,75.381 279.810 C 53.610 307.691,72.883 348.565,107.800 348.565 C 139.924 348.565,160.075 312.874,143.740 284.911 C 139.680 277.961,132.701 271.316,126.534 268.526 C 123.300 267.063,123.600 270.596,123.600 233.946 L 123.600 201.216 125.300 200.357 C 132.163 196.891,138.435 191.492,142.172 185.837 C 162.265 155.425,138.635 116.095,102.600 119.973 M282.200 119.981 C 267.682 121.654,254.105 132.517,248.681 146.800 C 246.425 152.741,246.200 154.125,246.203 162.000 C 246.207 169.736,246.242 169.959,248.479 176.600 C 251.702 186.164,259.968 195.345,269.846 200.330 C 272.109 201.472,272.000 199.764,272.000 234.200 C 272.000 269.698,272.254 266.744,269.057 268.430 C 257.811 274.356,250.679 283.378,246.945 296.400 C 245.872 300.143,245.868 312.689,246.939 316.200 C 248.536 321.437,249.346 323.523,250.899 326.400 C 263.463 349.667,293.375 355.742,313.795 339.174 C 337.099 320.266,333.178 282.141,306.544 268.671 C 302.850 266.803,303.200 270.414,303.200 234.171 C 303.200 197.537,302.788 201.431,306.886 199.358 C 318.222 193.625,326.814 181.517,328.767 168.523 C 332.961 140.633,310.068 116.769,282.200 119.981 M118.200 121.767 C 125.584 123.678,131.789 127.378,137.319 133.167 C 142.333 138.415,144.654 142.472,147.063 150.200 C 150.876 162.430,147.861 178.641,140.090 187.700 C 135.485 193.069,131.359 196.511,126.800 198.790 C 125.370 199.505,123.885 200.368,123.500 200.707 C 122.590 201.509,122.396 266.149,123.300 267.263 C 123.575 267.602,125.240 268.652,127.000 269.596 C 134.598 273.673,139.495 278.701,144.478 287.543 C 145.193 288.811,146.572 292.650,147.587 296.200 C 150.772 307.328,147.407 323.395,140.053 332.168 C 134.655 338.607,130.352 341.706,121.400 345.602 C 114.518 348.598,100.725 348.458,93.600 345.321 C 88.856 343.232,86.298 341.862,84.000 340.178 C 61.650 323.803,60.982 290.918,82.644 273.488 C 84.209 272.230,85.588 271.200,85.709 271.200 C 86.202 271.200,91.836 267.835,92.300 267.263 C 93.204 266.150,93.010 201.509,92.100 200.707 C 91.715 200.368,90.233 199.506,88.807 198.792 C 83.449 196.111,76.568 189.904,73.740 185.200 C 66.500 173.159,64.993 161.987,68.864 149.036 C 69.330 147.476,69.844 146.020,70.007 145.800 C 70.169 145.580,70.429 144.987,70.584 144.482 C 72.032 139.762,83.277 126.800,85.923 126.800 C 86.149 126.800,86.393 126.660,86.467 126.489 C 86.704 125.936,93.329 122.863,95.780 122.170 C 103.154 120.084,111.143 119.941,118.200 121.767 M295.145 121.170 C 322.171 126.409,336.874 157.102,323.898 181.193 C 321.564 185.526,321.422 185.779,321.195 186.000 C 321.081 186.110,320.237 187.113,319.317 188.228 C 316.785 191.300,314.816 193.218,312.186 195.173 C 310.874 196.149,309.710 197.049,309.600 197.173 C 309.490 197.298,307.960 198.137,306.200 199.038 L 303.000 200.675 302.898 233.794 C 302.824 257.494,302.921 267.064,303.237 267.444 C 303.480 267.737,305.193 268.782,307.045 269.767 C 327.613 280.709,334.534 306.835,322.524 328.200 C 321.906 329.300,321.308 330.290,321.195 330.400 C 321.081 330.510,320.187 331.572,319.207 332.760 C 309.132 344.972,290.573 351.093,277.291 346.584 C 276.346 346.263,275.391 346.000,275.171 346.000 C 274.950 346.000,273.291 345.339,271.484 344.531 C 249.376 334.645,240.225 308.736,251.207 287.123 C 255.217 279.233,260.985 273.581,270.000 268.709 C 272.979 267.099,272.807 269.345,272.698 233.508 L 272.600 201.215 271.600 200.512 C 271.050 200.125,269.610 199.295,268.400 198.666 C 233.060 180.315,242.611 127.107,282.400 120.671 C 285.211 120.216,291.493 120.462,295.145 121.170 " stroke="none" fill="#84a4ac" fill-rule="evenodd"></path>
    </g>
</svg>